<svg xmlns="http://www.w3.org/2000/svg" enable-background="new 0 0 32 32" viewBox="0 0 32 32"><path fill="#FFF9DD" d="M26,32H6c-3.314,0-6-2.686-6-6V6c0-3.314,2.686-6,6-6h20c3.314,0,6,2.686,6,6v20C32,29.314,29.314,32,26,32z"/><path fill="#FFE777" d="M23.932,17.044c0.1-0.773,0.09-1.564-0.03-2.333c-0.1-0.64-0.28-1.264-0.53-1.859c-0.16-0.374-0.351-0.734-0.571-1.078c-0.781-1.225-1.912-2.209-3.215-2.867c-0.463-0.237-0.951-0.43-1.452-0.579h-0.003c0.079,0.042,0.16,0.088,0.231,0.134c0.08,0.049,0.16,0.097,0.235,0.15c0.38,0.257,0.731,0.551,1.042,0.887c0.71,0.763,1.201,1.699,1.482,2.694c0.19,0.655,0.29,1.332,0.331,2.011c0.029,0.495,0.029,0.994-0.031,1.486c-0.1,0.847-0.37,1.673-0.821,2.397c-0.331,0.535-0.762,1.013-1.272,1.389c-0.831,0.619-1.923,0.988-2.965,0.743c-0.17-0.041-0.341-0.097-0.5-0.172c-0.181-0.083-0.361-0.185-0.521-0.299c-0.311-0.207-0.592-0.457-0.831-0.737c-0.291-0.347-0.531-0.741-0.701-1.165c-0.21-0.537-0.32-1.115-0.33-1.693c-0.02-0.849,0.15-1.702,0.571-2.447c0.281-0.496,0.661-0.931,1.111-1.279c0.15-0.119,0.31-0.222,0.471-0.319l0.011-0.005c-0.311-0.07-0.642-0.101-0.963-0.08c-0.279,0.019-0.55,0.07-0.821,0.159c-0.24,0.08-0.471,0.181-0.681,0.3c-0.17,0.099-0.339,0.21-0.49,0.33c-0.141,0.12-0.281,0.239-0.411,0.37c-0.751,0.769-1.182,1.788-1.351,2.837c-0.1,0.649-0.1,1.307-0.061,1.967c0.07,0.929,0.261,1.857,0.632,2.707c0.23,0.529,0.53,1.018,0.901,1.449c0.571,0.658,1.293,1.169,2.093,1.487c0.451,0.181,0.932,0.31,1.412,0.36c0.05,0.01,0.1,0.01,0.14,0.01l-0.014-0.021c0.32-0.003,0.637-0.019,0.953-0.063c0.722-0.092,1.432-0.289,2.103-0.575c0.942-0.401,1.803-0.981,2.535-1.695c0.67-0.659,1.231-1.434,1.631-2.285C23.591,18.63,23.831,17.845,23.932,17.044z"/><path fill="#FFD200" d="M8.069,17.05c0.08,0.68,0.25,1.349,0.52,1.985c0.152,0.38,0.342,0.749,0.551,1.099c0.731,1.189,1.793,2.157,3.014,2.827c0.46,0.261,0.941,0.46,1.442,0.63c0.151,0.049,0.301,0.099,0.461,0.139l0.011-0.016c-0.11-0.047-0.21-0.099-0.301-0.152c-0.1-0.055-0.201-0.112-0.3-0.173c-0.391-0.241-0.741-0.525-1.062-0.85c-0.731-0.759-1.221-1.711-1.502-2.72c-0.19-0.689-0.291-1.401-0.331-2.115c-0.029-0.469-0.019-0.929,0.031-1.388c0.09-0.838,0.331-1.667,0.751-2.387c0.3-0.529,0.71-0.999,1.192-1.369c0.33-0.249,0.701-0.46,1.091-0.6c0.551-0.199,1.142-0.259,1.713-0.18c0.221,0.03,0.44,0.081,0.641,0.15c0.019,0,0.019,0,0.03,0.02c0.01,0.01,0.03,0.01,0.04,0.02c0.03,0.011,0.07,0.03,0.11,0.049c0.16,0.08,0.32,0.181,0.471,0.28c0.601,0.419,1.091,0.999,1.402,1.668c0.281,0.609,0.411,1.289,0.422,1.959c0.009,0.719-0.12,1.438-0.431,2.097c-0.371,0.789-1.001,1.459-1.763,1.888c0.06,0.02,0.12,0.03,0.181,0.05c0.15,0.029,0.3,0.049,0.46,0.049c0.981,0.03,1.933-0.439,2.633-1.098c0.13-0.12,0.251-0.25,0.361-0.39c0.15-0.18,0.291-0.359,0.41-0.549c0.16-0.25,0.291-0.5,0.41-0.769c0.151-0.359,0.27-0.729,0.34-1.109c0.131-0.669,0.141-1.348,0.1-2.017c-0.09-1.348-0.45-2.697-1.231-3.816c-0.12-0.169-0.24-0.329-0.371-0.479c-0.22-0.25-0.46-0.479-0.71-0.689c-0.281-0.23-0.592-0.439-0.911-0.61c-0.33-0.149-0.721-0.298-1.131-0.399l-0.2-0.04c-0.14-0.02-0.281-0.029-0.424-0.04c-0.217-0.01-0.447-0.007-0.678,0.011c-0.471,0.03-0.944,0.107-1.412,0.225c-2.243,0.577-4.205,2.137-5.25,4.205c-0.335,0.659-0.571,1.364-0.71,2.088C7.979,15.363,7.958,16.216,8.069,17.05z"/></svg>